<?xml version="1.0" encoding="UTF-8" standalone="no"?>
<!DOCTYPE svg PUBLIC "-//W3C//DTD SVG 1.1//EN"
 "http://www.w3.org/Graphics/SVG/1.1/DTD/svg11.dtd">
<!-- Generated by graphviz version 2.43.0 (0)
 -->
<!-- Title: root Pages: 1 -->
<svg width="587pt" height="650pt"
 viewBox="0.00 0.00 586.58 650.13" xmlns="http://www.w3.org/2000/svg" xmlns:xlink="http://www.w3.org/1999/xlink">
<g id="graph0" class="graph" transform="scale(1 1) rotate(0) translate(4 646.13)">
<title>root</title>
<polygon fill="white" stroke="transparent" points="-4,4 -4,-646.13 582.58,-646.13 582.58,4 -4,4"/>
<!-- ROOT -->
<g id="node1" class="node">
<title>ROOT</title>
<ellipse fill="ghostwhite" stroke="black" cx="248.91" cy="-624.13" rx="30.13" ry="18"/>
<text text-anchor="middle" x="248.91" y="-621.33" font-family="Times,serif" font-size="11.00">ROOT</text>
</g>
<!-- ?\nManipulation\nTask -->
<g id="node2" class="node">
<title>?\nManipulation\nTask</title>
<polygon fill="cyan" stroke="black" points="318.71,-522.43 318.71,-550.48 277.82,-570.31 220,-570.31 179.11,-550.48 179.11,-522.43 220,-502.6 277.82,-502.6 318.71,-522.43"/>
<text text-anchor="middle" x="248.91" y="-545.66" font-family="Times,serif" font-size="11.00">?</text>
<text text-anchor="middle" x="248.91" y="-533.66" font-family="Times,serif" font-size="11.00">Manipulation</text>
<text text-anchor="middle" x="248.91" y="-521.66" font-family="Times,serif" font-size="11.00">Task</text>
</g>
<!-- ROOT&#45;&gt;?\nManipulation\nTask -->
<g id="edge1" class="edge">
<title>ROOT&#45;&gt;?\nManipulation\nTask</title>
<path fill="none" stroke="black" d="M248.91,-605.79C248.91,-598.4 248.91,-589.42 248.91,-580.43"/>
<polygon fill="black" stroke="black" points="252.41,-580.37 248.91,-570.37 245.41,-580.37 252.41,-580.37"/>
</g>
<!-- Is object\n at target? -->
<g id="node3" class="node">
<title>Is object\n at target?</title>
<ellipse fill="gray" stroke="black" cx="192.91" cy="-444.15" rx="53.98" ry="22.76"/>
<text text-anchor="middle" x="192.91" y="-447.35" font-family="Times,serif" font-size="11.00">Is object</text>
<text text-anchor="middle" x="192.91" y="-435.35" font-family="Times,serif" font-size="11.00"> at target?</text>
</g>
<!-- ?\nManipulation\nTask&#45;&gt;Is object\n at target? -->
<g id="edge2" class="edge">
<title>?\nManipulation\nTask&#45;&gt;Is object\n at target?</title>
<path fill="none" stroke="black" d="M228.54,-502.6C222.91,-493.52 216.83,-483.73 211.32,-474.84"/>
<polygon fill="black" stroke="black" points="214.28,-472.97 206.04,-466.32 208.33,-476.66 214.28,-472.97"/>
</g>
<!-- &#45;&gt;\nManipulate -->
<g id="node4" class="node">
<title>&#45;&gt;\nManipulate</title>
<polygon fill="orange" stroke="black" points="344.91,-462.15 264.91,-462.15 264.91,-426.15 344.91,-426.15 344.91,-462.15"/>
<text text-anchor="middle" x="304.91" y="-447.35" font-family="Times,serif" font-size="11.00">&#45;&gt;</text>
<text text-anchor="middle" x="304.91" y="-435.35" font-family="Times,serif" font-size="11.00">Manipulate</text>
</g>
<!-- ?\nManipulation\nTask&#45;&gt;&#45;&gt;\nManipulate -->
<g id="edge3" class="edge">
<title>?\nManipulation\nTask&#45;&gt;&#45;&gt;\nManipulate</title>
<path fill="none" stroke="black" d="M269.29,-502.6C275.75,-492.17 282.8,-480.8 288.91,-470.95"/>
<polygon fill="black" stroke="black" points="291.92,-472.74 294.22,-462.4 285.97,-469.05 291.92,-472.74"/>
</g>
<!-- ?\nIs there a\nvalid \ntrajectory? -->
<g id="node5" class="node">
<title>?\nIs there a\nvalid \ntrajectory?</title>
<polygon fill="cyan" stroke="black" points="229.81,-324.97 229.81,-360.36 194.72,-385.39 145.1,-385.39 110.01,-360.36 110.01,-324.97 145.1,-299.94 194.72,-299.94 229.81,-324.97"/>
<text text-anchor="middle" x="169.91" y="-357.86" font-family="Times,serif" font-size="11.00">?</text>
<text text-anchor="middle" x="169.91" y="-345.86" font-family="Times,serif" font-size="11.00">Is there a</text>
<text text-anchor="middle" x="169.91" y="-333.86" font-family="Times,serif" font-size="11.00">valid </text>
<text text-anchor="middle" x="169.91" y="-321.86" font-family="Times,serif" font-size="11.00">trajectory?</text>
</g>
<!-- &#45;&gt;\nManipulate&#45;&gt;?\nIs there a\nvalid \ntrajectory? -->
<g id="edge4" class="edge">
<title>&#45;&gt;\nManipulate&#45;&gt;?\nIs there a\nvalid \ntrajectory?</title>
<path fill="none" stroke="black" d="M281.7,-426.05C264.6,-413.44 240.7,-395.83 219.39,-380.13"/>
<polygon fill="black" stroke="black" points="221.19,-377.1 211.06,-373.99 217.04,-382.74 221.19,-377.1"/>
</g>
<!-- ?\nCan Robot\nPush? -->
<g id="node8" class="node">
<title>?\nCan Robot\nPush?</title>
<polygon fill="cyan" stroke="black" points="362.22,-328.64 362.22,-356.69 328.65,-376.52 281.18,-376.52 247.61,-356.69 247.61,-328.64 281.18,-308.81 328.65,-308.81 362.22,-328.64"/>
<text text-anchor="middle" x="304.91" y="-351.86" font-family="Times,serif" font-size="11.00">?</text>
<text text-anchor="middle" x="304.91" y="-339.86" font-family="Times,serif" font-size="11.00">Can Robot</text>
<text text-anchor="middle" x="304.91" y="-327.86" font-family="Times,serif" font-size="11.00">Push?</text>
</g>
<!-- &#45;&gt;\nManipulate&#45;&gt;?\nCan Robot\nPush? -->
<g id="edge7" class="edge">
<title>&#45;&gt;\nManipulate&#45;&gt;?\nCan Robot\nPush?</title>
<path fill="none" stroke="black" d="M304.91,-425.82C304.91,-415 304.91,-400.55 304.91,-386.78"/>
<polygon fill="black" stroke="black" points="308.41,-386.46 304.91,-376.46 301.41,-386.46 308.41,-386.46"/>
</g>
<!-- Push\nalong\ntrajectory -->
<g id="node16" class="node">
<title>Push\nalong\ntrajectory</title>
<ellipse fill="gray" stroke="black" cx="430.91" cy="-342.66" rx="50.82" ry="31.23"/>
<text text-anchor="middle" x="430.91" y="-351.86" font-family="Times,serif" font-size="11.00">Push</text>
<text text-anchor="middle" x="430.91" y="-339.86" font-family="Times,serif" font-size="11.00">along</text>
<text text-anchor="middle" x="430.91" y="-327.86" font-family="Times,serif" font-size="11.00">trajectory</text>
</g>
<!-- &#45;&gt;\nManipulate&#45;&gt;Push\nalong\ntrajectory -->
<g id="edge15" class="edge">
<title>&#45;&gt;\nManipulate&#45;&gt;Push\nalong\ntrajectory</title>
<path fill="none" stroke="black" d="M326.57,-426.05C344.54,-411.86 370.54,-391.33 392.09,-374.31"/>
<polygon fill="black" stroke="black" points="394.43,-376.93 400.11,-367.99 390.09,-371.44 394.43,-376.93"/>
</g>
<!-- Is current\ntrajectory\nvalid? -->
<g id="node6" class="node">
<title>Is current\ntrajectory\nvalid?</title>
<ellipse fill="gray" stroke="black" cx="50.91" cy="-232.69" rx="50.82" ry="31.23"/>
<text text-anchor="middle" x="50.91" y="-241.89" font-family="Times,serif" font-size="11.00">Is current</text>
<text text-anchor="middle" x="50.91" y="-229.89" font-family="Times,serif" font-size="11.00">trajectory</text>
<text text-anchor="middle" x="50.91" y="-217.89" font-family="Times,serif" font-size="11.00">valid?</text>
</g>
<!-- ?\nIs there a\nvalid \ntrajectory?&#45;&gt;Is current\ntrajectory\nvalid? -->
<g id="edge5" class="edge">
<title>?\nIs there a\nvalid \ntrajectory?&#45;&gt;Is current\ntrajectory\nvalid?</title>
<path fill="none" stroke="black" d="M133.24,-308.39C118.35,-294.88 101.21,-279.33 86.45,-265.93"/>
<polygon fill="black" stroke="black" points="88.72,-263.27 78.96,-259.14 84.02,-268.45 88.72,-263.27"/>
</g>
<!-- Compute\nTrajectory -->
<g id="node7" class="node">
<title>Compute\nTrajectory</title>
<ellipse fill="gray" stroke="black" cx="172.91" cy="-232.69" rx="53.07" ry="22.76"/>
<text text-anchor="middle" x="172.91" y="-235.89" font-family="Times,serif" font-size="11.00">Compute</text>
<text text-anchor="middle" x="172.91" y="-223.89" font-family="Times,serif" font-size="11.00">Trajectory</text>
</g>
<!-- ?\nIs there a\nvalid \ntrajectory?&#45;&gt;Compute\nTrajectory -->
<g id="edge6" class="edge">
<title>?\nIs there a\nvalid \ntrajectory?&#45;&gt;Compute\nTrajectory</title>
<path fill="none" stroke="black" d="M171.07,-299.92C171.39,-288.52 171.73,-276.36 172.02,-265.61"/>
<polygon fill="black" stroke="black" points="175.53,-265.5 172.31,-255.41 168.53,-265.31 175.53,-265.5"/>
</g>
<!-- Is robot\n in correct\n contact? -->
<g id="node9" class="node">
<title>Is robot\n in correct\n contact?</title>
<ellipse fill="gray" stroke="black" cx="301.91" cy="-232.69" rx="53.07" ry="31.23"/>
<text text-anchor="middle" x="301.91" y="-241.89" font-family="Times,serif" font-size="11.00">Is robot</text>
<text text-anchor="middle" x="301.91" y="-229.89" font-family="Times,serif" font-size="11.00"> in correct</text>
<text text-anchor="middle" x="301.91" y="-217.89" font-family="Times,serif" font-size="11.00"> contact?</text>
</g>
<!-- ?\nCan Robot\nPush?&#45;&gt;Is robot\n in correct\n contact? -->
<g id="edge8" class="edge">
<title>?\nCan Robot\nPush?&#45;&gt;Is robot\n in correct\n contact?</title>
<path fill="none" stroke="black" d="M304,-308.98C303.7,-298.05 303.36,-285.73 303.04,-274.27"/>
<polygon fill="black" stroke="black" points="306.53,-273.95 302.76,-264.06 299.53,-274.15 306.53,-273.95"/>
</g>
<!-- &#45;&gt;*\nReposition\nRobot -->
<g id="node10" class="node">
<title>&#45;&gt;*\nReposition\nRobot</title>
<polygon fill="orange" stroke="black" points="450.41,-254.69 373.41,-254.69 373.41,-210.69 450.41,-210.69 450.41,-254.69"/>
<text text-anchor="middle" x="411.91" y="-241.89" font-family="Times,serif" font-size="11.00">&#45;&gt;*</text>
<text text-anchor="middle" x="411.91" y="-229.89" font-family="Times,serif" font-size="11.00">Reposition</text>
<text text-anchor="middle" x="411.91" y="-217.89" font-family="Times,serif" font-size="11.00">Robot</text>
</g>
<!-- ?\nCan Robot\nPush?&#45;&gt;&#45;&gt;*\nReposition\nRobot -->
<g id="edge9" class="edge">
<title>?\nCan Robot\nPush?&#45;&gt;&#45;&gt;*\nReposition\nRobot</title>
<path fill="none" stroke="black" d="M334.43,-311.87C349.85,-296.32 368.61,-277.38 383.82,-262.04"/>
<polygon fill="black" stroke="black" points="386.41,-264.4 390.96,-254.83 381.44,-259.47 386.41,-264.4"/>
</g>
<!-- ?\nCan robot\nmove safely? -->
<g id="node11" class="node">
<title>?\nCan robot\nmove safely?</title>
<polygon fill="cyan" stroke="black" points="339.15,-117.88 339.15,-145.92 299.18,-165.75 242.65,-165.75 202.68,-145.92 202.68,-117.88 242.65,-98.05 299.18,-98.05 339.15,-117.88"/>
<text text-anchor="middle" x="270.91" y="-141.1" font-family="Times,serif" font-size="11.00">?</text>
<text text-anchor="middle" x="270.91" y="-129.1" font-family="Times,serif" font-size="11.00">Can robot</text>
<text text-anchor="middle" x="270.91" y="-117.1" font-family="Times,serif" font-size="11.00">move safely?</text>
</g>
<!-- &#45;&gt;*\nReposition\nRobot&#45;&gt;?\nCan robot\nmove safely? -->
<g id="edge10" class="edge">
<title>&#45;&gt;*\nReposition\nRobot&#45;&gt;?\nCan robot\nmove safely?</title>
<path fill="none" stroke="black" d="M381.66,-210.5C363.31,-197.64 339.49,-180.95 318.65,-166.35"/>
<polygon fill="black" stroke="black" points="320.42,-163.32 310.22,-160.45 316.41,-169.05 320.42,-163.32"/>
</g>
<!-- Align with\n desired \nobject side -->
<g id="node14" class="node">
<title>Align with\n desired \nobject side</title>
<ellipse fill="gray" stroke="black" cx="411.91" cy="-131.9" rx="55.31" ry="31.23"/>
<text text-anchor="middle" x="411.91" y="-141.1" font-family="Times,serif" font-size="11.00">Align with</text>
<text text-anchor="middle" x="411.91" y="-129.1" font-family="Times,serif" font-size="11.00"> desired </text>
<text text-anchor="middle" x="411.91" y="-117.1" font-family="Times,serif" font-size="11.00">object side</text>
</g>
<!-- &#45;&gt;*\nReposition\nRobot&#45;&gt;Align with\n desired \nobject side -->
<g id="edge13" class="edge">
<title>&#45;&gt;*\nReposition\nRobot&#45;&gt;Align with\n desired \nobject side</title>
<path fill="none" stroke="black" d="M411.91,-210.25C411.91,-199.53 411.91,-186.17 411.91,-173.6"/>
<polygon fill="black" stroke="black" points="415.41,-173.29 411.91,-163.29 408.41,-173.29 415.41,-173.29"/>
</g>
<!-- Move to \ncontact\n position -->
<g id="node15" class="node">
<title>Move to \ncontact\n position</title>
<ellipse fill="gray" stroke="black" cx="531.91" cy="-131.9" rx="46.84" ry="31.23"/>
<text text-anchor="middle" x="531.91" y="-141.1" font-family="Times,serif" font-size="11.00">Move to </text>
<text text-anchor="middle" x="531.91" y="-129.1" font-family="Times,serif" font-size="11.00">contact</text>
<text text-anchor="middle" x="531.91" y="-117.1" font-family="Times,serif" font-size="11.00"> position</text>
</g>
<!-- &#45;&gt;*\nReposition\nRobot&#45;&gt;Move to \ncontact\n position -->
<g id="edge14" class="edge">
<title>&#45;&gt;*\nReposition\nRobot&#45;&gt;Move to \ncontact\n position</title>
<path fill="none" stroke="black" d="M437.65,-210.5C454.53,-196.61 476.83,-178.24 495.51,-162.87"/>
<polygon fill="black" stroke="black" points="497.77,-165.54 503.27,-156.48 493.32,-160.14 497.77,-165.54"/>
</g>
<!-- Is robot\nfar from\nthe object? -->
<g id="node12" class="node">
<title>Is robot\nfar from\nthe object?</title>
<ellipse fill="gray" stroke="black" cx="204.91" cy="-31.11" rx="55.72" ry="31.23"/>
<text text-anchor="middle" x="204.91" y="-40.31" font-family="Times,serif" font-size="11.00">Is robot</text>
<text text-anchor="middle" x="204.91" y="-28.31" font-family="Times,serif" font-size="11.00">far from</text>
<text text-anchor="middle" x="204.91" y="-16.31" font-family="Times,serif" font-size="11.00">the object?</text>
</g>
<!-- ?\nCan robot\nmove safely?&#45;&gt;Is robot\nfar from\nthe object? -->
<g id="edge11" class="edge">
<title>?\nCan robot\nmove safely?&#45;&gt;Is robot\nfar from\nthe object?</title>
<path fill="none" stroke="black" d="M248.93,-98.01C242.73,-88.72 235.95,-78.56 229.6,-69.06"/>
<polygon fill="black" stroke="black" points="232.38,-66.93 223.92,-60.56 226.56,-70.82 232.38,-66.93"/>
</g>
<!-- Move away \nfrom\nthe object -->
<g id="node13" class="node">
<title>Move away \nfrom\nthe object</title>
<ellipse fill="gray" stroke="black" cx="337.91" cy="-31.11" rx="59.29" ry="31.23"/>
<text text-anchor="middle" x="337.91" y="-40.31" font-family="Times,serif" font-size="11.00">Move away </text>
<text text-anchor="middle" x="337.91" y="-28.31" font-family="Times,serif" font-size="11.00">from</text>
<text text-anchor="middle" x="337.91" y="-16.31" font-family="Times,serif" font-size="11.00">the object</text>
</g>
<!-- ?\nCan robot\nmove safely?&#45;&gt;Move away \nfrom\nthe object -->
<g id="edge12" class="edge">
<title>?\nCan robot\nmove safely?&#45;&gt;Move away \nfrom\nthe object</title>
<path fill="none" stroke="black" d="M293.22,-98.01C299.52,-88.72 306.41,-78.56 312.85,-69.06"/>
<polygon fill="black" stroke="black" points="315.9,-70.8 318.62,-60.56 310.11,-66.87 315.9,-70.8"/>
</g>
</g>
</svg>
